  <svg width="48" height="48" viewBox="0 0 48 48" fill="none" xmlns="http://www.w3.org/2000/svg">    
    <defs>
      <linearGradient id="rose" x1="0" y1="0" x2="48" y2="48">
        <stop stop-color="#fff1f2"/>
        <stop offset="1" stop-color="#ffe4e6"/>
      </linearGradient>
      <linearGradient id="accent" x1="0" y1="24" x2="48" y2="24">
        <stop stop-color="#e11d48"/>
        <stop offset="0.5" stop-color="#f43f5e"/>
        <stop offset="1" stop-color="#fb7185"/>
      </linearGradient>
    </defs>
    <!-- Soft background -->
    <rect width="48" height="48" rx="14" fill="url(#rose)"/>
    <!-- Three people in wave formation -->
    <circle cx="10" cy="20" r="4" fill="url(#accent)"/>
    <path d="M10 26C6 26 4 29 4 32V36H16V32C16 29 14 26 10 26Z" fill="url(#accent)"/>

    <circle cx="24" cy="14" r="5" fill="url(#accent)"/>
    <path d="M24 21C18 21 15 25 15 30V36H33V30C33 25 30 21 24 21Z" fill="url(#accent)"/>

    <circle cx="38" cy="20" r="4" fill="url(#accent)"/>
    <path d="M38 26C34 26 32 29 32 32V36H44V32C44 29 42 26 38 26Z" fill="url(#accent)"/>

    <!-- Smile curve connecting everyone -->
    <path d="M6 42C6 42 18 46 24 46C30 46 42 42 42 42" stroke="url(#accent)" stroke-width="2.5"      
  stroke-linecap="round"/>
  </svg>